<?xml version="1.0" encoding="utf-8"?>
<!-- Generator: Adobe Illustrator 27.4.1, SVG Export Plug-In . SVG Version: 6.00 Build 0)  -->
<svg version="1.1" xmlns="http://www.w3.org/2000/svg" xmlns:xlink="http://www.w3.org/1999/xlink" x="0px" y="0px"
	 viewBox="0 0 150 150" style="enable-background:new 0 0 150 150;" xml:space="preserve">
<style type="text/css">
	.st0{fill:#1D1D1B;}
	.st1{fill:none;stroke:#1D1D1B;stroke-miterlimit:10;}
	.st2{fill:#985C5C;}
	.st3{fill:#FFFFFF;}
	.st4{fill:#A58C5F;}
	.st5{fill:none;stroke:#FFFFFF;stroke-miterlimit:10;}
	.st6{stroke:#1D1D1B;stroke-miterlimit:10;}
	.st7{fill:#985C5C;stroke:#985C5C;stroke-miterlimit:10;}
</style>
<g id="Lager_1">
	<g>
		<g>
			<path class="st0" d="M-1131.24-90.64v-1.32c1.51-0.21,2.83-0.7,3.97-1.48c1.13-0.78,2.01-2.14,2.61-4.09
				c0.61-1.95,0.91-4.76,0.91-8.41v-34.46c0-1.55-0.1-2.7-0.31-3.43c-0.21-0.73-0.64-1.24-1.29-1.51c-0.65-0.27-1.61-0.43-2.87-0.47
				v-1.26c1.13,0.04,2.65,0.08,4.54,0.13c1.89,0.04,3.88,0.06,5.99,0.06c2.1,0,4.17-0.02,6.21-0.06c2.04-0.04,3.71-0.08,5.01-0.13
				v1.26c-1.26,0.04-2.22,0.2-2.87,0.47c-0.65,0.27-1.08,0.78-1.29,1.51c-0.21,0.74-0.31,1.88-0.31,3.43v23.06
				c0,1.72,0.01,3.58,0.03,5.58c0.02,2-0.04,3.94-0.19,5.83c-0.15,1.89-0.45,3.57-0.91,5.04c-0.92,2.9-2.96,5.33-6.11,7.31
				C-1121.29-91.63-1125.66-90.64-1131.24-90.64z"/>
			<path class="st0" d="M-1069.56-135.88v26.52c0,1.89,0.26,3.29,0.79,4.19c0.52,0.9,1.44,1.35,2.74,1.35v1.32
				c-1.3-0.13-2.6-0.19-3.91-0.19c-2.1,0-4.05,0.06-5.86,0.19c-1.81,0.13-3.51,0.36-5.1,0.69v-4.54c-1.01,1.68-2.36,2.89-4.06,3.62
				c-1.7,0.73-3.69,1.1-5.95,1.1c-1.93,0-3.46-0.24-4.57-0.72c-1.11-0.48-1.96-1.08-2.55-1.79c-0.63-0.76-1.09-1.76-1.39-3.02
				c-0.29-1.26-0.44-2.96-0.44-5.1v-16.07c0-1.89-0.25-3.29-0.76-4.19c-0.5-0.9-1.43-1.35-2.77-1.35v-1.32
				c1.34,0.13,2.65,0.19,3.91,0.19c2.1,0,4.06-0.07,5.89-0.22c1.83-0.15,3.52-0.37,5.07-0.66v27.03c0,0.88,0.1,1.62,0.31,2.21
				c0.21,0.59,0.55,1.03,1.01,1.32c0.46,0.29,1.05,0.44,1.76,0.44c0.8,0,1.53-0.19,2.21-0.57c0.67-0.38,1.23-0.91,1.67-1.61
				s0.66-1.48,0.66-2.36v-18.9c0-1.89-0.25-3.29-0.76-4.19c-0.5-0.9-1.43-1.35-2.77-1.35v-1.32c1.34,0.13,2.65,0.19,3.91,0.19
				c2.1,0,4.06-0.07,5.89-0.22C-1072.81-135.36-1071.12-135.58-1069.56-135.88z"/>
			<path class="st0" d="M-1047.89-151.75v43.41c0,1.76,0.26,2.96,0.79,3.59c0.52,0.63,1.44,0.94,2.74,0.94v1.32
				c-0.84-0.04-2.1-0.09-3.78-0.16c-1.68-0.06-3.4-0.09-5.17-0.09s-3.55,0.03-5.35,0.09c-1.81,0.06-3.17,0.12-4.1,0.16v-1.32
				c1.3,0,2.21-0.31,2.74-0.94c0.52-0.63,0.79-1.83,0.79-3.59v-35.85c0-1.89-0.25-3.29-0.76-4.19c-0.5-0.9-1.43-1.35-2.77-1.35
				v-1.32c1.34,0.13,2.65,0.19,3.91,0.19c2.1,0,4.06-0.07,5.89-0.22C-1051.14-151.24-1049.45-151.46-1047.89-151.75z"/>
			<path class="st0" d="M-1026.03-135.88v27.53c0,1.76,0.26,2.96,0.79,3.59c0.52,0.63,1.44,0.94,2.74,0.94v1.32
				c-0.84-0.04-2.1-0.09-3.78-0.16c-1.68-0.06-3.4-0.09-5.17-0.09s-3.55,0.03-5.35,0.09c-1.81,0.06-3.17,0.12-4.09,0.16v-1.32
				c1.3,0,2.21-0.31,2.74-0.94c0.52-0.63,0.79-1.83,0.79-3.59v-19.97c0-1.89-0.25-3.29-0.76-4.19c-0.5-0.9-1.43-1.35-2.77-1.35
				v-1.32c1.34,0.13,2.65,0.19,3.91,0.19c2.1,0,4.06-0.07,5.89-0.22C-1029.28-135.36-1027.59-135.58-1026.03-135.88z
				 M-1032.08-151.75c2.18,0,3.87,0.45,5.07,1.35c1.2,0.9,1.8,2.26,1.8,4.06s-0.6,3.16-1.8,4.06c-1.2,0.9-2.89,1.35-5.07,1.35
				c-2.18,0-3.87-0.45-5.07-1.35c-1.2-0.9-1.8-2.26-1.8-4.06s0.6-3.16,1.8-4.06C-1035.95-151.3-1034.26-151.75-1032.08-151.75z"/>
			<path class="st0" d="M-1002.28-136.07c3.7,0,6.6,1.08,8.73,3.24c2.12,2.16,3.18,5.79,3.18,10.87h-19.72l-0.13-1.2h10.65
				c0.04-2.06-0.04-3.96-0.25-5.7c-0.21-1.74-0.55-3.14-1.01-4.19c-0.46-1.05-1.09-1.58-1.89-1.58c-1.13,0-2.06,0.89-2.77,2.68
				c-0.71,1.79-1.18,4.84-1.39,9.17l0.25,0.5c-0.04,0.42-0.06,0.84-0.06,1.26c0,0.42,0,0.86,0,1.32c0,2.94,0.37,5.23,1.1,6.87
				c0.73,1.64,1.66,2.77,2.77,3.4c1.11,0.63,2.24,0.94,3.37,0.94c0.59,0,1.29-0.08,2.11-0.25c0.82-0.17,1.71-0.56,2.68-1.17
				c0.97-0.61,1.91-1.54,2.83-2.8l1.07,0.38c-0.5,1.68-1.31,3.35-2.43,5.01c-1.11,1.66-2.55,3.02-4.32,4.09
				c-1.76,1.07-3.91,1.61-6.43,1.61c-2.69,0-5.13-0.55-7.34-1.64s-3.96-2.9-5.26-5.42c-1.3-2.52-1.95-5.9-1.95-10.14
				c0-4.03,0.71-7.32,2.14-9.86c1.43-2.54,3.37-4.41,5.83-5.61C-1008.05-135.47-1005.31-136.07-1002.28-136.07z"/>
			<path class="st0" d="M-983.51-147.97c1.09,0,2.07,0.2,2.93,0.6c0.86,0.4,1.54,0.98,2.05,1.73c0.46,0.59,0.84,1.41,1.13,2.46
				c0.29,1.05,0.44,2.23,0.44,3.53c0,2.1-0.55,4.08-1.64,5.95c-1.09,1.87-2.77,3.33-5.04,4.38l-0.57-1.13
				c1.09-0.5,2.08-1.23,2.96-2.17c0.88-0.95,1.47-1.94,1.76-2.99c0.38-1.18,0.44-2.33,0.19-3.46c-1.09,1.3-2.62,1.95-4.6,1.95
				c-1.68,0-3.02-0.47-4.03-1.42c-1.01-0.95-1.51-2.28-1.51-4c0-1.64,0.54-2.95,1.64-3.94
				C-986.7-147.48-985.27-147.97-983.51-147.97z"/>
			<path class="st0" d="M-960.14-136.07c1.85,0,3.47,0.2,4.88,0.6c1.41,0.4,2.43,0.77,3.06,1.1c1.47,0.88,2.37,0.34,2.71-1.64h1.26
				c-0.08,1.22-0.15,2.7-0.19,4.44c-0.04,1.74-0.06,4.04-0.06,6.9h-1.26c-0.17-1.55-0.54-3.09-1.1-4.6
				c-0.57-1.51-1.39-2.77-2.46-3.78c-1.07-1.01-2.47-1.51-4.19-1.51c-1.05,0-1.93,0.32-2.65,0.95c-0.71,0.63-1.07,1.49-1.07,2.58
				c0,1.26,0.38,2.38,1.13,3.37c0.76,0.99,1.72,1.93,2.9,2.83c1.18,0.9,2.35,1.86,3.53,2.87c1.3,1.05,2.46,2.08,3.46,3.09
				c1.01,1.01,1.82,2.11,2.43,3.31c0.61,1.2,0.91,2.61,0.91,4.25c0,1.89-0.58,3.57-1.73,5.04c-1.16,1.47-2.69,2.62-4.6,3.43
				c-1.91,0.82-4.04,1.23-6.39,1.23c-1.47,0-2.75-0.16-3.84-0.47c-1.09-0.31-1.97-0.68-2.65-1.1c-0.67-0.33-1.25-0.6-1.73-0.79
				c-0.48-0.19-0.96-0.28-1.42-0.28c-0.42,0-0.78,0.22-1.07,0.66c-0.29,0.44-0.53,0.96-0.69,1.54h-1.26
				c0.08-1.34,0.15-2.98,0.19-4.91c0.04-1.93,0.06-4.49,0.06-7.69h1.26c0.25,2.23,0.75,4.2,1.48,5.92c0.73,1.72,1.68,3.08,2.83,4.06
				c1.15,0.99,2.49,1.48,4,1.48c0.67,0,1.28-0.13,1.83-0.38c0.55-0.25,0.99-0.63,1.32-1.13c0.34-0.5,0.5-1.15,0.5-1.95
				c0-1.85-0.56-3.4-1.67-4.66c-1.11-1.26-2.51-2.65-4.19-4.16c-1.26-1.18-2.45-2.32-3.56-3.43c-1.11-1.11-2.03-2.33-2.74-3.65
				c-0.71-1.32-1.07-2.8-1.07-4.44c0-1.89,0.56-3.51,1.67-4.85c1.11-1.34,2.57-2.38,4.38-3.12
				C-964.13-135.7-962.19-136.07-960.14-136.07z"/>
		</g>
	</g>
	<text transform="matrix(1 0 0 1 -1078.5637 -64.9037)"><tspan x="0" y="0" class="st0" style="font-family:'AvertaStd-Regular'; font-size:25px;">b</tspan><tspan x="15.4" y="0" class="st0" style="font-family:'AvertaStd-Regular'; font-size:25px;">akery</tspan></text>
	<circle class="st1" cx="-1038.73" cy="-126.14" r="112.41"/>
	<g>
		<g>
			<path d="M-1040.18-199.93c-0.49-0.92-0.93-1.73-1.36-2.54c-0.08-0.15-0.18-0.3-0.24-0.46c-0.58-1.65-0.5-1.88,0.87-2.6
				c5.3-2.83,12-1.45,15.65,3.28c0.81,1.05,1.44,2.24,2.11,3.4c0.67,1.17,1.28,2.37,1.93,3.59c0.82-0.44,1.6-0.87,2.38-1.27
				c0.74-0.38,1.45-0.23,1.88,0.39c0.47,0.68,0.36,1.44-0.35,1.87c-1.11,0.65-2.24,1.27-3.38,1.85c-0.37,0.19-0.49,0.32-0.41,0.79
				c0.22,1.41-0.05,2.79-0.83,3.98c-0.74,1.12-1.17,2.29-1.23,3.64c-0.1,2.28-0.58,4.49-1.59,6.55c-1.17,2.4-2.78,4.48-4.85,6.17
				c-3.47,2.83-7.4,4.55-11.89,4.85c-3.41,0.22-6.65-0.47-9.6-2.25c-1.34-0.8-2.75-1.18-4.33-1.23c-2.14-0.06-3.7-1.2-4.72-3.07
				c-0.23-0.42-0.5-0.87-0.54-1.32c-0.13-1.41-0.12-2.81,0.67-4.08c0.33-0.52,0.71-1.03,0.9-1.6c0.25-0.72,0.45-1.49,0.47-2.24
				c0.1-2.84,0.97-5.43,2.29-7.92c0.46-0.86,1.03-1.6,1.71-2.29c0.91-0.9,1.71-1.92,2.67-2.76c2.99-2.6,6.47-4.14,10.42-4.6
				C-1041.14-199.86-1040.7-199.89-1040.18-199.93z M-1023.97-191.42c-0.17,0.03-0.3,0.06-0.42,0.09c-3.7,0.85-7.14,0.26-10.32-1.8
				c-1.47-0.95-2.63-2.21-3.65-3.63c-0.14-0.19-0.43-0.4-0.65-0.39c-1.09,0.05-2.2,0.06-3.27,0.27c-4.09,0.82-7.49,2.82-10.15,6.07
				c-2.08,2.54-3.33,5.39-3.45,8.71c-0.06,1.75-0.61,3.33-1.6,4.8c-1.36,2.01,0.15,4.5,2.08,4.59c0.29,0.01,0.58,0.07,0.87,0.07
				c1.64,0.03,3.1,0.58,4.52,1.37c1.03,0.57,2.1,1.11,3.22,1.46c3.39,1.05,6.76,0.82,10.05-0.5c3.8-1.52,6.93-3.83,8.99-7.45
				c1.02-1.8,1.64-3.74,1.74-5.8c0.1-2.04,0.55-3.94,1.72-5.65C-1023.84-189.86-1023.76-190.61-1023.97-191.42z M-1038.75-203.5
				c0.06,0.15,0.09,0.26,0.14,0.36c0.78,1.47,1.54,2.94,2.34,4.39c0.6,1.09,1.4,2.02,2.38,2.78c2.79,2.16,5.89,2.75,9.29,1.77
				c0.46-0.13,0.56-0.27,0.33-0.69c-0.71-1.31-1.43-2.61-2.1-3.94c-1.45-2.86-3.78-4.57-6.89-5.25
				C-1035.12-204.47-1036.94-204.21-1038.75-203.5z"/>
		</g>
		<circle cx="-1049.55" cy="-186.69" r="1.28"/>
		<circle cx="-1051.83" cy="-179.88" r="1.28"/>
		<circle cx="-1047.38" cy="-182.15" r="1.28"/>
	</g>
	<g>
		<circle class="st2" cx="-774.3" cy="-137.04" r="115.14"/>
		<text transform="matrix(1 0 0 1 -859.1404 -110.6569)"><tspan x="0" y="0" class="st3" style="font-family:'GodshomeDEMO'; font-size:63px; letter-spacing:1;">Juli</tspan><tspan x="98.03" y="0" class="st3" style="font-family:'GodshomeDEMO'; font-size:63px; letter-spacing:-2;">e</tspan><tspan x="128.71" y="0" class="st3" style="font-family:'MyriadPro-Regular'; font-size:63px;">’</tspan><tspan x="141.87" y="0" class="st3" style="font-family:'GodshomeDEMO'; font-size:63px; letter-spacing:-1;">s</tspan></text>
		<text transform="matrix(1 0 0 1 -814.1188 -73.0739)"><tspan x="0" y="0" class="st3" style="font-family:'AvertaStd-Regular'; font-size:25px;">b</tspan><tspan x="15.4" y="0" class="st3" style="font-family:'AvertaStd-Regular'; font-size:25px;">akery</tspan></text>
		<g>
			<g>
				<path class="st3" d="M-775.73-208.1c-0.49-0.92-0.93-1.73-1.36-2.54c-0.08-0.15-0.18-0.3-0.24-0.46
					c-0.58-1.65-0.5-1.88,0.87-2.6c5.3-2.83,12-1.45,15.65,3.28c0.81,1.05,1.44,2.24,2.11,3.4c0.67,1.17,1.28,2.37,1.93,3.59
					c0.82-0.44,1.6-0.87,2.38-1.27c0.74-0.38,1.45-0.23,1.88,0.39c0.47,0.68,0.36,1.44-0.35,1.87c-1.11,0.65-2.24,1.27-3.38,1.85
					c-0.37,0.19-0.49,0.32-0.41,0.79c0.22,1.41-0.05,2.79-0.83,3.98c-0.74,1.12-1.17,2.29-1.23,3.64c-0.1,2.28-0.58,4.49-1.59,6.55
					c-1.17,2.4-2.78,4.48-4.85,6.17c-3.47,2.83-7.4,4.55-11.89,4.85c-3.41,0.22-6.65-0.47-9.6-2.25c-1.34-0.8-2.75-1.18-4.33-1.23
					c-2.14-0.06-3.7-1.2-4.72-3.07c-0.23-0.42-0.5-0.87-0.54-1.32c-0.13-1.41-0.12-2.81,0.67-4.08c0.33-0.52,0.71-1.03,0.9-1.6
					c0.25-0.72,0.45-1.49,0.47-2.24c0.1-2.84,0.97-5.43,2.29-7.92c0.46-0.86,1.03-1.6,1.71-2.29c0.91-0.9,1.71-1.92,2.67-2.76
					c2.99-2.6,6.47-4.14,10.42-4.6C-776.69-208.03-776.25-208.06-775.73-208.1z M-759.52-199.59c-0.17,0.03-0.3,0.06-0.42,0.09
					c-3.7,0.85-7.14,0.26-10.32-1.8c-1.47-0.95-2.63-2.21-3.65-3.63c-0.14-0.19-0.43-0.4-0.65-0.39c-1.09,0.05-2.2,0.06-3.27,0.27
					c-4.09,0.82-7.49,2.82-10.15,6.07c-2.08,2.54-3.33,5.39-3.45,8.71c-0.06,1.75-0.61,3.33-1.6,4.8c-1.36,2.01,0.15,4.5,2.08,4.59
					c0.29,0.01,0.58,0.07,0.87,0.07c1.64,0.03,3.1,0.58,4.52,1.37c1.03,0.57,2.1,1.11,3.22,1.46c3.39,1.05,6.76,0.82,10.05-0.5
					c3.8-1.52,6.93-3.83,8.99-7.45c1.02-1.8,1.64-3.74,1.74-5.8c0.1-2.04,0.55-3.94,1.72-5.65
					C-759.4-198.03-759.32-198.78-759.52-199.59z M-774.3-211.67c0.06,0.15,0.09,0.26,0.14,0.36c0.78,1.47,1.54,2.94,2.34,4.39
					c0.6,1.09,1.4,2.02,2.38,2.78c2.79,2.16,5.89,2.75,9.29,1.77c0.46-0.13,0.56-0.27,0.33-0.69c-0.71-1.31-1.43-2.61-2.1-3.94
					c-1.45-2.86-3.78-4.57-6.89-5.25C-770.67-212.64-772.5-212.38-774.3-211.67z"/>
			</g>
			<circle class="st3" cx="-785.11" cy="-194.86" r="1.28"/>
			<circle class="st3" cx="-787.39" cy="-188.05" r="1.28"/>
			<circle class="st3" cx="-782.94" cy="-190.32" r="1.28"/>
		</g>
	</g>
	<g>
		<circle class="st4" cx="-891.63" cy="93.25" r="115.14"/>
		<g>
			<path class="st3" d="M-962.07,116.07c-0.69,2.33-1.56,4.37-2.61,6.11c-1.05,1.74-2.2,3.2-3.46,4.38
				c-1.26,1.18-2.47,2.12-3.62,2.83c-1.16,0.71-2.17,1.23-3.06,1.54c-0.88,0.31-1.47,0.47-1.76,0.47v-0.88
				c0.46,0,0.92-0.33,1.39-0.98c0.46-0.65,0.87-1.67,1.23-3.06c0.36-1.39,0.65-3.17,0.88-5.36c0.23-2.18,0.35-4.83,0.35-7.94V80.26
				c0-0.84-0.16-1.51-0.47-2.02s-0.66-0.88-1.04-1.13c-0.46-0.29-0.95-0.48-1.45-0.57h17.64c-0.5,0.08-0.99,0.27-1.45,0.57
				c-0.38,0.25-0.72,0.62-1.04,1.1c-0.32,0.48-0.47,1.15-0.47,1.98v27.78C-961.03,111.04-961.38,113.74-962.07,116.07z"/>
			<path class="st3" d="M-954.01,92.01c-0.31-0.48-0.64-0.85-0.98-1.1c-0.46-0.29-0.95-0.48-1.45-0.57
				c2.31-0.34,4.47-0.71,6.49-1.13c0.84-0.17,1.68-0.36,2.52-0.57c0.84-0.21,1.63-0.42,2.36-0.63c0.73-0.21,1.38-0.43,1.92-0.66
				c0.55-0.23,0.95-0.47,1.2-0.72l-0.06,19.28c0,3.15,0.27,5.61,0.82,7.37c0.55,1.76,1.64,2.65,3.28,2.65c0.8,0,1.45-0.27,1.95-0.82
				c0.5-0.54,0.9-1.29,1.2-2.24c0.29-0.95,0.5-2.04,0.63-3.28c0.13-1.24,0.21-2.55,0.25-3.94V93.99c0-0.84-0.16-1.5-0.47-1.99
				c-0.31-0.48-0.64-0.85-0.98-1.1c-0.46-0.29-0.94-0.48-1.45-0.57c2.31-0.34,4.47-0.71,6.49-1.13c0.84-0.17,1.68-0.36,2.52-0.57
				c0.84-0.21,1.62-0.42,2.33-0.63c0.71-0.21,1.34-0.43,1.89-0.66c0.54-0.23,0.94-0.47,1.2-0.72v26.9c0,0.84,0.16,1.49,0.47,1.95
				c0.32,0.46,0.66,0.82,1.04,1.07c0.46,0.29,0.94,0.48,1.45,0.57l-14.49,2.77v-7.37c-0.59,2.73-1.6,4.64-3.02,5.73
				c-1.43,1.09-3.38,1.64-5.86,1.64c-3.78,0-6.51-1.4-8.19-4.19c-1.68-2.79-2.52-6.62-2.52-11.5h-0.06V93.99
				C-953.54,93.15-953.69,92.49-954.01,92.01z"/>
			<path class="st3" d="M-915.67,119.06c0.34-0.25,0.66-0.62,0.98-1.1c0.32-0.48,0.47-1.14,0.47-1.98V80.95
				c0-0.84-0.16-1.5-0.47-1.98c-0.31-0.48-0.64-0.85-0.98-1.1c-0.46-0.29-0.95-0.48-1.45-0.57c2.31-0.34,4.46-0.71,6.47-1.13
				c0.83-0.17,1.67-0.36,2.51-0.57c0.83-0.21,1.62-0.42,2.35-0.63c0.73-0.21,1.37-0.44,1.91-0.69s0.94-0.5,1.19-0.76v42.53
				c0,0.84,0.15,1.49,0.44,1.95s0.63,0.82,1.01,1.07c0.42,0.29,0.9,0.48,1.45,0.57h-17.33
				C-916.62,119.55-916.14,119.36-915.67,119.06z"/>
			<path class="st3" d="M-897.47,119.63c0.5-0.08,0.99-0.27,1.45-0.57c0.34-0.25,0.66-0.62,0.98-1.1c0.32-0.48,0.47-1.14,0.47-1.98
				V93.99c0-0.84-0.16-1.5-0.47-1.99c-0.31-0.48-0.64-0.85-0.98-1.1c-0.46-0.29-0.95-0.48-1.45-0.57c2.31-0.34,4.47-0.71,6.49-1.13
				c0.84-0.17,1.68-0.36,2.52-0.57c0.84-0.21,1.63-0.42,2.36-0.63c0.73-0.21,1.38-0.43,1.92-0.66s0.95-0.47,1.2-0.72v29.42
				c0,0.84,0.15,1.49,0.44,1.95c0.29,0.46,0.63,0.82,1.01,1.07c0.42,0.29,0.9,0.48,1.45,0.57H-897.47z M-889.15,86.62
				c-1.85,0-3.4-0.63-4.66-1.89c-1.26-1.26-1.89-2.81-1.89-4.66c0-0.88,0.17-1.72,0.5-2.52c0.34-0.8,0.8-1.5,1.39-2.11
				c0.59-0.61,1.28-1.08,2.08-1.42c0.8-0.33,1.66-0.5,2.58-0.5c0.88,0,1.72,0.17,2.52,0.5c0.8,0.34,1.5,0.81,2.11,1.42
				c0.61,0.61,1.08,1.31,1.42,2.11c0.34,0.8,0.5,1.64,0.5,2.52c0,0.92-0.17,1.79-0.5,2.58c-0.34,0.8-0.81,1.49-1.42,2.08
				c-0.61,0.59-1.31,1.05-2.11,1.39S-888.27,86.62-889.15,86.62z"/>
			<path class="st3" d="M-861.43,119.88c-2.6,0-4.89-0.43-6.87-1.29c-1.97-0.86-3.62-2.05-4.95-3.56c-1.32-1.51-2.31-3.28-2.96-5.29
				c-0.65-2.02-0.98-4.18-0.98-6.49c0-2.31,0.33-4.47,0.98-6.49c0.65-2.02,1.64-3.78,2.96-5.29c1.32-1.51,2.97-2.7,4.95-3.56
				c1.97-0.86,4.26-1.29,6.87-1.29c2.81,0,5.14,0.46,6.99,1.39c1.85,0.92,3.25,2.08,4.22,3.46c0.96,1.39,1.5,2.89,1.61,4.5
				c0.1,1.62-0.19,3.12-0.88,4.5c-0.69,1.39-1.76,2.54-3.21,3.47c-1.45,0.92-3.22,1.39-5.32,1.39c-1.76,0-3.25-0.1-4.47-0.32
				c-1.22-0.21-2.23-0.42-3.02-0.63c0.42,1.26,0.97,2.44,1.64,3.53c0.67,1.09,1.49,2.06,2.46,2.9c0.97,0.84,2.08,1.5,3.34,1.98
				c1.26,0.48,2.71,0.72,4.35,0.72c1.18,0,2.18-0.12,3.02-0.35c0.84-0.23,1.55-0.49,2.14-0.79c0.67-0.34,1.22-0.71,1.64-1.13
				l0.25,0.44c-1.3,1.55-2.73,2.92-4.28,4.1c-1.34,1.05-2.91,2-4.69,2.83C-857.45,119.46-859.38,119.88-861.43,119.88z
				 M-861.43,87.25c-1.05,0-1.95,0.5-2.71,1.51c-0.76,1.01-1.34,2.3-1.76,3.88c-0.42,1.57-0.62,3.34-0.6,5.29
				c0.02,1.95,0.28,3.85,0.79,5.7c1.09,0.29,2.14,0.33,3.15,0.09c1.01-0.23,1.9-0.72,2.68-1.48c0.78-0.76,1.4-1.79,1.86-3.09
				c0.46-1.3,0.69-2.9,0.69-4.79c0-0.8-0.08-1.63-0.25-2.49c-0.17-0.86-0.43-1.63-0.79-2.3c-0.36-0.67-0.79-1.23-1.29-1.67
				C-860.17,87.47-860.76,87.25-861.43,87.25z"/>
			<path class="st3" d="M-836.17,76.47c-1.45,5.29-4.16,12.03-5.92,14.93l-3.53,0.44c1.39-3.72,3.02-10.27,3.72-14.81L-836.17,76.47
				z"/>
			<path class="st3" d="M-833.21,95.5c0-2.94,1.11-5.16,3.34-6.65c2.23-1.49,5.12-2.24,8.69-2.24c2.06,0,3.86,0.11,5.42,0.31
				c1.55,0.21,2.88,0.42,3.97,0.63c1.26,0.25,2.35,0.55,3.28,0.88l-0.19,9.51h-0.19c-0.5-1.93-1.24-3.67-2.21-5.23
				c-0.42-0.67-0.89-1.32-1.42-1.95c-0.53-0.63-1.13-1.2-1.83-1.7c-0.69-0.5-1.46-0.9-2.3-1.2c-0.84-0.29-1.76-0.44-2.77-0.44
				c-0.71,0-1.42,0.22-2.11,0.66c-0.69,0.44-1.04,1.29-1.04,2.55c0,1.39,0.39,2.56,1.17,3.53c0.78,0.97,1.76,1.85,2.96,2.65
				s2.48,1.57,3.84,2.33c1.36,0.76,2.65,1.62,3.84,2.58c1.2,0.97,2.18,2.09,2.96,3.37c0.78,1.28,1.17,2.87,1.17,4.76
				c0,3.4-1.25,5.94-3.75,7.62c-2.5,1.68-5.91,2.52-10.24,2.52c-1.89,0-3.62-0.16-5.2-0.47c-1.58-0.31-2.91-0.66-4-1.04
				c-1.34-0.46-2.52-0.97-3.53-1.51v-10.21h0.19c0.84,2.35,1.85,4.43,3.02,6.24c0.5,0.76,1.07,1.51,1.7,2.27s1.34,1.42,2.14,1.98
				c0.8,0.57,1.66,1.03,2.58,1.39c0.92,0.36,1.93,0.54,3.02,0.54c0.34,0,0.69-0.05,1.07-0.16c0.38-0.1,0.73-0.28,1.07-0.54
				s0.62-0.58,0.85-0.98c0.23-0.4,0.35-0.89,0.35-1.48c0-1.34-0.39-2.53-1.17-3.56c-0.78-1.03-1.75-1.99-2.93-2.9
				c-1.18-0.9-2.46-1.78-3.84-2.65c-1.39-0.86-2.67-1.83-3.84-2.9c-1.18-1.07-2.15-2.29-2.93-3.65S-833.21,97.39-833.21,95.5z"/>
		</g>
		<g>
			<path class="st3" d="M-917.3,151.22c0,3.72-2.62,6.15-5.97,6.15c-1.77,0-3.27-0.78-4.25-2.08h-0.05v1.92h-1.92v-18.4h2.02v8.05
				h0.02c1.03-1.27,2.52-1.97,4.2-1.97C-919.82,144.89-917.3,147.62-917.3,151.22z M-919.37,151.22c0-2.7-1.8-4.45-4.12-4.45
				s-4.05,1.95-4.05,4.45c0,2.58,1.9,4.3,4.07,4.3C-921,155.52-919.37,153.67-919.37,151.22z"/>
			<path class="st3" d="M-902.65,145.04v12.17h-1.95v-1.92h-0.03c-0.97,1.3-2.47,2.08-4.25,2.08c-3.37,0-5.97-2.42-5.97-6.15
				c0-3.6,2.5-6.32,5.95-6.32c1.67,0,3.17,0.7,4.2,1.97h0.03v-1.82H-902.65z M-904.6,151.22c0-2.5-1.72-4.45-4.07-4.45
				c-2.3,0-4.12,1.75-4.12,4.45c0,2.45,1.62,4.3,4.1,4.3C-906.5,155.52-904.6,153.79-904.6,151.22z"/>
			<path class="st3" d="M-894.32,151.64l-2.55,2.82v2.75h-2v-18.4h2v12.87h0.05l5.97-6.65h2.47l-4.55,5.05l4.57,7.12h-2.32
				l-3.6-5.57H-894.32z"/>
			<path class="st3" d="M-875.17,151.77h-9.37c0.28,2.27,1.88,3.75,4.07,3.75c1.52,0,2.67-0.7,3.42-1.65l1.42,1.23
				c-1.05,1.35-2.7,2.27-4.92,2.27c-3.45,0-6.05-2.52-6.05-6.22c0-3.67,2.52-6.25,5.82-6.25c3.4,0,5.65,2.55,5.65,6.05
				C-875.13,151.27-875.17,151.69-875.17,151.77z M-884.47,150.09h7.35c-0.33-2-1.6-3.32-3.55-3.32
				C-882.57,146.77-884.1,148.02-884.47,150.09z"/>
			<path class="st3" d="M-865.5,144.92v2.25c-0.28-0.02-0.6-0.05-0.8-0.05c-2.3,0-3.7,1.77-3.7,4.22v5.87h-2.02v-12.17h2.02v2.15
				h0.03c0.9-1.45,2.32-2.3,3.97-2.3C-865.8,144.89-865.62,144.89-865.5,144.92z"/>
			<path class="st3" d="M-852.43,145.04l-6.87,17.12h-2.15l2.17-5.45l-5.15-11.67h2.17l3.95,9.27h0.05l3.67-9.27H-852.43z"/>
		</g>
		<g>
			<g>
				<path class="st3" d="M-893.06,22.19c-0.49-0.92-0.93-1.73-1.36-2.54c-0.08-0.15-0.18-0.3-0.24-0.46
					c-0.58-1.65-0.5-1.88,0.87-2.6c5.3-2.83,12-1.45,15.65,3.28c0.81,1.05,1.44,2.24,2.11,3.4c0.67,1.17,1.28,2.37,1.93,3.59
					c0.82-0.44,1.6-0.87,2.38-1.27c0.74-0.38,1.45-0.23,1.88,0.39c0.47,0.68,0.36,1.44-0.35,1.87c-1.11,0.65-2.24,1.27-3.38,1.85
					c-0.37,0.19-0.49,0.32-0.41,0.79c0.22,1.41-0.05,2.79-0.83,3.98c-0.74,1.12-1.17,2.29-1.23,3.64c-0.1,2.28-0.58,4.49-1.59,6.55
					c-1.17,2.4-2.78,4.48-4.85,6.17c-3.47,2.83-7.4,4.55-11.89,4.85c-3.41,0.22-6.65-0.47-9.6-2.25c-1.34-0.8-2.75-1.18-4.33-1.23
					c-2.14-0.06-3.7-1.2-4.72-3.07c-0.23-0.42-0.5-0.87-0.54-1.32c-0.13-1.41-0.12-2.81,0.67-4.08c0.33-0.52,0.71-1.03,0.9-1.6
					c0.25-0.72,0.45-1.49,0.47-2.24c0.1-2.84,0.97-5.43,2.29-7.92c0.46-0.86,1.03-1.6,1.71-2.29c0.91-0.9,1.71-1.92,2.67-2.76
					c2.99-2.6,6.47-4.14,10.42-4.6C-894.02,22.26-893.58,22.23-893.06,22.19z M-876.85,30.7c-0.17,0.03-0.3,0.06-0.42,0.09
					c-3.7,0.85-7.14,0.26-10.32-1.8c-1.47-0.95-2.63-2.21-3.65-3.63c-0.14-0.19-0.43-0.4-0.65-0.39c-1.09,0.05-2.2,0.06-3.27,0.27
					c-4.09,0.82-7.49,2.82-10.15,6.07c-2.08,2.54-3.33,5.39-3.45,8.71c-0.06,1.75-0.61,3.33-1.6,4.8c-1.36,2.01,0.15,4.5,2.08,4.59
					c0.29,0.01,0.58,0.07,0.87,0.07c1.64,0.03,3.1,0.58,4.52,1.37c1.03,0.57,2.1,1.11,3.22,1.46c3.39,1.05,6.76,0.82,10.05-0.5
					c3.8-1.52,6.93-3.83,8.99-7.45c1.02-1.8,1.64-3.74,1.74-5.8c0.1-2.04,0.55-3.94,1.72-5.65
					C-876.72,32.26-876.65,31.51-876.85,30.7z M-891.63,18.62c0.06,0.15,0.09,0.26,0.14,0.36c0.78,1.47,1.54,2.94,2.34,4.39
					c0.6,1.09,1.4,2.02,2.38,2.78c2.79,2.16,5.89,2.75,9.29,1.77c0.46-0.13,0.56-0.27,0.33-0.69c-0.71-1.31-1.43-2.61-2.1-3.94
					c-1.45-2.86-3.78-4.57-6.89-5.25C-888,17.65-889.83,17.91-891.63,18.62z"/>
			</g>
			<circle class="st3" cx="-902.44" cy="35.43" r="1.28"/>
			<circle class="st3" cx="-904.71" cy="42.24" r="1.28"/>
			<circle class="st3" cx="-900.27" cy="39.96" r="1.28"/>
		</g>
	</g>
	<circle class="st5" cx="-219.13" cy="75" r="115.14"/>
	<text transform="matrix(1 0 0 1 -303.9648 101.3839)"><tspan x="0" y="0" class="st3" style="font-family:'GodshomeDEMO'; font-size:63px; letter-spacing:1;">Juli</tspan><tspan x="98.03" y="0" class="st3" style="font-family:'GodshomeDEMO'; font-size:63px; letter-spacing:-2;">e</tspan><tspan x="128.71" y="0" class="st3" style="font-family:'MyriadPro-Regular'; font-size:63px;">’</tspan><tspan x="141.87" y="0" class="st3" style="font-family:'GodshomeDEMO'; font-size:63px; letter-spacing:-1;">s</tspan></text>
	<text transform="matrix(1 0 0 1 -258.943 138.9669)"><tspan x="0" y="0" class="st3" style="font-family:'AvertaStd-Regular'; font-size:25px;">b</tspan><tspan x="15.4" y="0" class="st3" style="font-family:'AvertaStd-Regular'; font-size:25px;">akery</tspan></text>
	<g>
		<g>
			<path class="st3" d="M-220.56,3.94c-0.49-0.92-0.93-1.73-1.36-2.54c-0.08-0.15-0.18-0.3-0.24-0.46c-0.58-1.65-0.5-1.88,0.87-2.6
				c5.3-2.83,12-1.45,15.65,3.28c0.81,1.05,1.44,2.24,2.11,3.4c0.67,1.17,1.28,2.37,1.93,3.59c0.82-0.44,1.6-0.87,2.38-1.27
				c0.74-0.38,1.45-0.23,1.88,0.39c0.47,0.68,0.36,1.44-0.35,1.87c-1.11,0.65-2.24,1.27-3.38,1.85c-0.37,0.19-0.49,0.32-0.41,0.79
				c0.22,1.41-0.05,2.79-0.83,3.98c-0.74,1.12-1.17,2.29-1.23,3.64c-0.1,2.28-0.58,4.49-1.59,6.55c-1.17,2.4-2.78,4.48-4.85,6.17
				c-3.47,2.83-7.4,4.55-11.89,4.85c-3.41,0.22-6.65-0.47-9.6-2.25c-1.34-0.8-2.75-1.18-4.33-1.23c-2.14-0.06-3.7-1.2-4.72-3.07
				c-0.23-0.42-0.5-0.87-0.54-1.32c-0.13-1.41-0.12-2.81,0.67-4.08c0.33-0.52,0.71-1.03,0.9-1.6c0.25-0.72,0.45-1.49,0.47-2.24
				c0.1-2.84,0.97-5.43,2.29-7.92c0.46-0.86,1.03-1.6,1.71-2.29c0.91-0.9,1.71-1.92,2.67-2.76c2.99-2.6,6.47-4.14,10.42-4.6
				C-221.52,4.01-221.08,3.98-220.56,3.94z M-204.35,12.45c-0.17,0.03-0.3,0.06-0.42,0.09c-3.7,0.85-7.14,0.26-10.32-1.8
				c-1.47-0.95-2.63-2.21-3.65-3.63c-0.14-0.19-0.43-0.4-0.65-0.39c-1.09,0.05-2.2,0.06-3.27,0.27c-4.09,0.82-7.49,2.82-10.15,6.07
				c-2.08,2.54-3.33,5.39-3.45,8.71c-0.06,1.75-0.61,3.33-1.6,4.8c-1.36,2.01,0.15,4.5,2.08,4.59c0.29,0.01,0.58,0.07,0.87,0.07
				c1.64,0.03,3.1,0.58,4.52,1.37c1.03,0.57,2.1,1.11,3.22,1.46c3.39,1.05,6.76,0.82,10.05-0.5c3.8-1.52,6.93-3.83,8.99-7.45
				c1.02-1.8,1.64-3.74,1.74-5.8c0.1-2.04,0.55-3.94,1.72-5.65C-204.22,14.01-204.14,13.26-204.35,12.45z M-219.13,0.37
				c0.06,0.15,0.09,0.26,0.14,0.36c0.78,1.47,1.54,2.94,2.34,4.39c0.6,1.09,1.4,2.02,2.38,2.78c2.79,2.16,5.89,2.75,9.29,1.77
				c0.46-0.13,0.56-0.27,0.33-0.69c-0.71-1.31-1.43-2.61-2.1-3.94c-1.45-2.86-3.78-4.57-6.89-5.25
				C-215.5-0.6-217.32-0.34-219.13,0.37z"/>
		</g>
		<circle class="st3" cx="-229.93" cy="17.18" r="1.28"/>
		<circle class="st3" cx="-232.21" cy="23.99" r="1.28"/>
		<circle class="st3" cx="-227.76" cy="21.72" r="1.28"/>
	</g>
	<circle class="st6" cx="-1157.94" cy="-331.75" r="14.81"/>
	<g>
		<g>
			<path class="st3" d="M-1158.43-336.27c-0.17-0.31-0.32-0.59-0.46-0.87c-0.03-0.05-0.06-0.1-0.08-0.16
				c-0.2-0.56-0.17-0.64,0.3-0.89c1.81-0.97,4.1-0.49,5.35,1.12c0.28,0.36,0.49,0.77,0.72,1.16c0.23,0.4,0.44,0.81,0.66,1.23
				c0.28-0.15,0.55-0.3,0.81-0.43c0.25-0.13,0.5-0.08,0.64,0.13c0.16,0.23,0.12,0.49-0.12,0.64c-0.38,0.22-0.77,0.43-1.16,0.63
				c-0.13,0.07-0.17,0.11-0.14,0.27c0.08,0.48-0.02,0.95-0.28,1.36c-0.25,0.38-0.4,0.78-0.42,1.24c-0.03,0.78-0.2,1.53-0.54,2.24
				c-0.4,0.82-0.95,1.53-1.66,2.11c-1.18,0.97-2.53,1.56-4.06,1.66c-1.17,0.08-2.27-0.16-3.28-0.77c-0.46-0.27-0.94-0.4-1.48-0.42
				c-0.73-0.02-1.26-0.41-1.61-1.05c-0.08-0.14-0.17-0.3-0.18-0.45c-0.04-0.48-0.04-0.96,0.23-1.4c0.11-0.18,0.24-0.35,0.31-0.55
				c0.09-0.25,0.15-0.51,0.16-0.77c0.04-0.97,0.33-1.86,0.78-2.7c0.16-0.29,0.35-0.55,0.58-0.78c0.31-0.31,0.58-0.66,0.91-0.94
				c1.02-0.89,2.21-1.42,3.56-1.57C-1158.76-336.24-1158.61-336.25-1158.43-336.27z M-1152.89-333.36c-0.06,0.01-0.1,0.02-0.14,0.03
				c-1.26,0.29-2.44,0.09-3.53-0.61c-0.5-0.33-0.9-0.76-1.25-1.24c-0.05-0.07-0.15-0.14-0.22-0.13c-0.37,0.02-0.75,0.02-1.12,0.09
				c-1.4,0.28-2.56,0.96-3.47,2.07c-0.71,0.87-1.14,1.84-1.18,2.98c-0.02,0.6-0.21,1.14-0.55,1.64c-0.47,0.69,0.05,1.54,0.71,1.57
				c0.1,0,0.2,0.02,0.3,0.03c0.56,0.01,1.06,0.2,1.55,0.47c0.35,0.19,0.72,0.38,1.1,0.5c1.16,0.36,2.31,0.28,3.44-0.17
				c1.3-0.52,2.37-1.31,3.07-2.55c0.35-0.62,0.56-1.28,0.6-1.98c0.04-0.7,0.19-1.35,0.59-1.93
				C-1152.85-332.83-1152.82-333.09-1152.89-333.36z M-1157.94-337.49c0.02,0.05,0.03,0.09,0.05,0.12c0.27,0.5,0.53,1,0.8,1.5
				c0.2,0.37,0.48,0.69,0.81,0.95c0.95,0.74,2.01,0.94,3.18,0.61c0.16-0.05,0.19-0.09,0.11-0.24c-0.24-0.45-0.49-0.89-0.72-1.35
				c-0.5-0.98-1.29-1.56-2.35-1.79C-1156.7-337.82-1157.33-337.73-1157.94-337.49z"/>
		</g>
		<circle class="st3" cx="-1161.64" cy="-331.75" r="0.44"/>
		<circle class="st3" cx="-1162.41" cy="-329.42" r="0.44"/>
		<circle class="st3" cx="-1160.89" cy="-330.2" r="0.44"/>
	</g>
	<circle class="st7" cx="-1112.32" cy="-331.75" r="14.81"/>
	<g>
		<g>
			<path class="st3" d="M-1112.82-336.27c-0.17-0.31-0.32-0.59-0.46-0.87c-0.03-0.05-0.06-0.1-0.08-0.16
				c-0.2-0.56-0.17-0.64,0.3-0.89c1.81-0.97,4.1-0.49,5.35,1.12c0.28,0.36,0.49,0.77,0.72,1.16c0.23,0.4,0.44,0.81,0.66,1.23
				c0.28-0.15,0.55-0.3,0.81-0.43c0.25-0.13,0.5-0.08,0.64,0.13c0.16,0.23,0.12,0.49-0.12,0.64c-0.38,0.22-0.77,0.43-1.16,0.63
				c-0.13,0.07-0.17,0.11-0.14,0.27c0.08,0.48-0.02,0.95-0.28,1.36c-0.25,0.38-0.4,0.78-0.42,1.24c-0.03,0.78-0.2,1.53-0.54,2.24
				c-0.4,0.82-0.95,1.53-1.66,2.11c-1.18,0.97-2.53,1.56-4.06,1.66c-1.17,0.08-2.27-0.16-3.28-0.77c-0.46-0.27-0.94-0.4-1.48-0.42
				c-0.73-0.02-1.26-0.41-1.61-1.05c-0.08-0.14-0.17-0.3-0.18-0.45c-0.04-0.48-0.04-0.96,0.23-1.4c0.11-0.18,0.24-0.35,0.31-0.55
				c0.09-0.25,0.15-0.51,0.16-0.77c0.04-0.97,0.33-1.86,0.78-2.7c0.16-0.29,0.35-0.55,0.58-0.78c0.31-0.31,0.58-0.66,0.91-0.94
				c1.02-0.89,2.21-1.42,3.56-1.57C-1113.14-336.24-1112.99-336.25-1112.82-336.27z M-1107.28-333.36c-0.06,0.01-0.1,0.02-0.14,0.03
				c-1.26,0.29-2.44,0.09-3.53-0.61c-0.5-0.33-0.9-0.76-1.25-1.24c-0.05-0.07-0.15-0.14-0.22-0.13c-0.37,0.02-0.75,0.02-1.12,0.09
				c-1.4,0.28-2.56,0.96-3.47,2.07c-0.71,0.87-1.14,1.84-1.18,2.98c-0.02,0.6-0.21,1.14-0.55,1.64c-0.47,0.69,0.05,1.54,0.71,1.57
				c0.1,0,0.2,0.02,0.3,0.03c0.56,0.01,1.06,0.2,1.55,0.47c0.35,0.19,0.72,0.38,1.1,0.5c1.16,0.36,2.31,0.28,3.44-0.17
				c1.3-0.52,2.37-1.31,3.07-2.55c0.35-0.62,0.56-1.28,0.6-1.98c0.04-0.7,0.19-1.35,0.59-1.93
				C-1107.23-332.83-1107.21-333.09-1107.28-333.36z M-1112.33-337.49c0.02,0.05,0.03,0.09,0.05,0.12c0.27,0.5,0.53,1,0.8,1.5
				c0.2,0.37,0.48,0.69,0.81,0.95c0.95,0.74,2.01,0.94,3.18,0.61c0.16-0.05,0.19-0.09,0.11-0.24c-0.24-0.45-0.49-0.89-0.72-1.35
				c-0.5-0.98-1.29-1.56-2.35-1.79C-1111.09-337.82-1111.71-337.73-1112.33-337.49z"/>
		</g>
		<circle class="st3" cx="-1116.02" cy="-331.75" r="0.44"/>
		<circle class="st3" cx="-1116.8" cy="-329.42" r="0.44"/>
		<circle class="st3" cx="-1115.28" cy="-330.2" r="0.44"/>
	</g>
	<g>
		<path class="st4" d="M54.96,108.66c-1.46,0-2.55,1.23-2.55,2.8c0,1.62,1.19,2.7,2.56,2.7c1.56,0,2.58-1.16,2.58-2.7
			C57.55,109.76,56.42,108.66,54.96,108.66z"/>
		<path class="st4" d="M81.89,108.66c-1.19,0-2.15,0.79-2.39,2.09h4.62C83.92,109.49,83.12,108.66,81.89,108.66z"/>
		<path class="st4" d="M64.28,108.66c-1.45,0-2.59,1.1-2.59,2.8c0,1.54,1.02,2.7,2.58,2.7c1.38,0,2.58-1.08,2.58-2.7
			C66.84,109.89,65.76,108.66,64.28,108.66z"/>
		<path class="st4" d="M93.28,81.59c0.63-0.14,1.2-0.46,1.68-0.93c0.49-0.48,0.88-1.12,1.17-1.94c0.29-0.82,0.44-1.82,0.44-3.01
			c0-0.5-0.05-1.02-0.16-1.57c-0.11-0.54-0.27-1.02-0.5-1.45c-0.22-0.42-0.5-0.77-0.81-1.05c-0.32-0.28-0.69-0.42-1.11-0.42
			c-0.66,0-1.23,0.32-1.7,0.95c-0.48,0.63-0.85,1.45-1.11,2.44c-0.26,0.99-0.39,2.1-0.38,3.33c0.01,1.23,0.18,2.42,0.5,3.59
			C91.99,81.71,92.65,81.73,93.28,81.59z"/>
		<path class="st4" d="M76.56,31.05c0.38,0.69,0.88,1.27,1.5,1.75c1.76,1.36,3.7,1.73,5.84,1.12c0.29-0.08,0.35-0.17,0.21-0.43
			c-0.45-0.82-0.9-1.64-1.32-2.48c-0.91-1.8-2.38-2.87-4.33-3.3c-1.18-0.26-2.33-0.1-3.46,0.35c0.04,0.09,0.06,0.17,0.09,0.23
			C75.58,29.21,76.06,30.14,76.56,31.05z"/>
		<path class="st4" d="M75,2.58C35,2.58,2.58,35,2.58,75c0,40,32.42,72.42,72.42,72.42c40,0,72.42-32.42,72.42-72.42
			C147.42,35,115,2.58,75,2.58z M61.61,43.84c0.2-0.33,0.44-0.65,0.57-1c0.16-0.45,0.28-0.94,0.3-1.41
			c0.07-1.78,0.61-3.42,1.44-4.98c0.29-0.54,0.64-1.01,1.08-1.44c0.57-0.57,1.07-1.21,1.68-1.73c1.88-1.63,4.07-2.61,6.55-2.89
			c0.27-0.03,0.55-0.05,0.88-0.08c-0.31-0.58-0.58-1.09-0.85-1.6c-0.05-0.09-0.11-0.19-0.15-0.29c-0.37-1.04-0.31-1.18,0.54-1.64
			c3.33-1.78,7.54-0.91,9.84,2.06c0.51,0.66,0.91,1.41,1.32,2.14c0.42,0.73,0.8,1.49,1.21,2.26c0.52-0.28,1.01-0.54,1.5-0.8
			c0.47-0.24,0.91-0.14,1.18,0.25c0.3,0.43,0.23,0.91-0.22,1.17c-0.7,0.41-1.41,0.8-2.13,1.16c-0.24,0.12-0.31,0.2-0.26,0.5
			c0.14,0.89-0.03,1.76-0.52,2.51c-0.47,0.71-0.74,1.44-0.78,2.29c-0.06,1.43-0.37,2.82-1,4.12c-0.74,1.51-1.75,2.82-3.05,3.88
			c-2.18,1.78-4.66,2.86-7.48,3.05c-2.15,0.14-4.18-0.3-6.04-1.41c-0.84-0.51-1.73-0.75-2.73-0.77c-1.34-0.04-2.33-0.76-2.97-1.93
			c-0.14-0.26-0.31-0.55-0.34-0.83C61.1,45.53,61.11,44.64,61.61,43.84z M72.85,74.22c-0.2-0.3-0.4-0.53-0.61-0.69
			c-0.29-0.18-0.59-0.3-0.91-0.36c1.45-0.21,2.81-0.45,4.08-0.71c0.53-0.11,1.06-0.22,1.59-0.36c0.53-0.13,1.02-0.26,1.49-0.4
			c0.46-0.13,0.86-0.27,1.21-0.42c0.34-0.14,0.59-0.3,0.75-0.46v18.5c0,0.53,0.09,0.94,0.28,1.23c0.18,0.29,0.4,0.51,0.63,0.67
			c0.26,0.19,0.57,0.3,0.91,0.36H71.33c0.32-0.05,0.62-0.17,0.91-0.36c0.21-0.16,0.42-0.39,0.61-0.69c0.2-0.3,0.3-0.72,0.3-1.25
			V75.47C73.15,74.94,73.05,74.52,72.85,74.22z M72.44,66.71c0-0.55,0.11-1.08,0.32-1.58c0.21-0.5,0.5-0.94,0.87-1.33
			c0.37-0.38,0.81-0.68,1.31-0.89c0.5-0.21,1.04-0.32,1.62-0.32c0.55,0,1.08,0.11,1.58,0.32c0.5,0.21,0.94,0.51,1.33,0.89
			c0.38,0.38,0.68,0.83,0.89,1.33c0.21,0.5,0.32,1.03,0.32,1.58c0,0.58-0.11,1.12-0.32,1.62c-0.21,0.5-0.51,0.94-0.89,1.31
			c-0.38,0.37-0.83,0.66-1.33,0.87c-0.5,0.21-1.03,0.32-1.58,0.32c-1.16,0-2.14-0.4-2.93-1.19C72.83,68.85,72.44,67.87,72.44,66.71z
			 M32.3,64.85c-0.24,0.16-0.46,0.39-0.65,0.69c-0.2,0.3-0.3,0.72-0.3,1.25v17.47c0,1.93-0.22,3.63-0.65,5.09
			c-0.44,1.47-0.98,2.75-1.64,3.84c-0.66,1.1-1.39,2.01-2.18,2.75c-0.79,0.74-1.55,1.33-2.28,1.78c-0.73,0.45-1.37,0.77-1.92,0.97
			c-0.55,0.2-0.93,0.3-1.11,0.3v-0.55c0.29,0,0.58-0.21,0.87-0.61c0.29-0.41,0.55-1.05,0.77-1.92c0.22-0.87,0.41-1.99,0.55-3.37
			c0.14-1.37,0.22-3.04,0.22-4.99V66.83c0-0.53-0.1-0.95-0.3-1.27c-0.2-0.32-0.42-0.56-0.65-0.71c-0.29-0.18-0.59-0.3-0.91-0.36
			h11.09C32.9,64.54,32.59,64.66,32.3,64.85z M46.53,90.72c-0.9,0.69-2.13,1.03-3.69,1.03c-2.38,0-4.09-0.88-5.15-2.63
			c-1.06-1.76-1.58-4.17-1.58-7.23h-0.04v-6.42c0-0.53-0.1-0.94-0.3-1.25c-0.2-0.3-0.4-0.53-0.61-0.69
			c-0.29-0.18-0.59-0.3-0.91-0.36c1.45-0.21,2.81-0.45,4.08-0.71c0.53-0.11,1.06-0.22,1.58-0.36c0.53-0.13,1.02-0.26,1.49-0.4
			c0.46-0.13,0.86-0.27,1.21-0.42c0.34-0.14,0.59-0.3,0.75-0.46l-0.04,12.12c0,1.98,0.17,3.53,0.51,4.64
			c0.34,1.11,1.03,1.66,2.06,1.66c0.5,0,0.91-0.17,1.23-0.52c0.32-0.34,0.57-0.81,0.75-1.41c0.18-0.59,0.32-1.28,0.4-2.06
			c0.08-0.78,0.13-1.6,0.16-2.48v-7.33c0-0.53-0.1-0.94-0.3-1.25c-0.2-0.3-0.4-0.53-0.61-0.69c-0.29-0.18-0.59-0.3-0.91-0.36
			c1.45-0.21,2.81-0.45,4.08-0.71c0.53-0.11,1.06-0.22,1.58-0.36c0.53-0.13,1.02-0.26,1.47-0.4c0.45-0.13,0.85-0.27,1.19-0.42
			c0.34-0.14,0.59-0.3,0.75-0.46v16.92c0,0.53,0.1,0.94,0.3,1.23c0.2,0.29,0.42,0.52,0.65,0.67c0.29,0.18,0.59,0.3,0.91,0.36
			l-9.11,1.74v-4.64C48.06,88.83,47.42,90.04,46.53,90.72z M55.1,115.33c-1.12,0-2.06-0.49-2.67-1.31h-0.03v1.21h-1.21v-11.57h1.27
			v5.06h0.02c0.64-0.8,1.59-1.24,2.64-1.24c2.15,0,3.74,1.71,3.74,3.98C58.86,113.8,57.21,115.33,55.1,115.33z M68.07,115.23h-1.23
			v-1.21h-0.02c-0.61,0.82-1.56,1.31-2.67,1.31c-2.12,0-3.76-1.53-3.76-3.87c0-2.26,1.57-3.98,3.74-3.98c1.05,0,2,0.44,2.64,1.24
			h0.02v-1.15h1.27V115.23z M58.97,91.59c0.32-0.05,0.62-0.17,0.91-0.36c0.21-0.16,0.42-0.39,0.61-0.69c0.2-0.3,0.3-0.72,0.3-1.25
			V67.27c0-0.53-0.1-0.94-0.3-1.25c-0.2-0.3-0.4-0.53-0.61-0.69c-0.29-0.18-0.59-0.3-0.91-0.36c1.45-0.21,2.81-0.45,4.07-0.71
			c0.53-0.11,1.05-0.22,1.58-0.36c0.53-0.13,1.02-0.26,1.48-0.4c0.46-0.13,0.86-0.28,1.2-0.44s0.59-0.32,0.75-0.48v26.75
			c0,0.53,0.09,0.94,0.28,1.23s0.4,0.51,0.63,0.67c0.26,0.19,0.57,0.3,0.91,0.36H58.97z M75.6,115.23l-2.26-3.51h-0.03l-1.6,1.78
			v1.73h-1.26v-11.57h1.26v8.1h0.03l3.76-4.18h1.56l-2.86,3.18l2.88,4.48H75.6z M85.35,111.8h-5.9c0.17,1.43,1.18,2.36,2.56,2.36
			c0.96,0,1.68-0.44,2.15-1.04l0.9,0.77c-0.66,0.85-1.7,1.43-3.1,1.43c-2.17,0-3.8-1.59-3.8-3.91c0-2.31,1.59-3.93,3.66-3.93
			c2.14,0,3.55,1.6,3.55,3.8C85.38,111.49,85.35,111.76,85.35,111.8z M91.44,108.91c-0.17-0.02-0.38-0.03-0.5-0.03
			c-1.45,0-2.33,1.12-2.33,2.66v3.69h-1.27v-7.66h1.27v1.35h0.02c0.57-0.91,1.46-1.45,2.5-1.45c0.13,0,0.24,0,0.31,0.02V108.91z
			 M95.33,118.34h-1.35l1.37-3.43l-3.24-7.34h1.37l2.48,5.83h0.03l2.31-5.83h1.35L95.33,118.34z M100.57,89.18
			c-0.85,0.66-1.83,1.25-2.95,1.78c-1.12,0.53-2.33,0.79-3.63,0.79c-1.64,0-3.08-0.27-4.32-0.81c-1.24-0.54-2.28-1.29-3.11-2.24
			c-0.83-0.95-1.45-2.06-1.86-3.33c-0.41-1.27-0.61-2.63-0.61-4.08c0-1.45,0.2-2.81,0.61-4.08c0.41-1.27,1.03-2.38,1.86-3.33
			c0.83-0.95,1.87-1.7,3.11-2.24c1.24-0.54,2.68-0.81,4.32-0.81c1.77,0,3.24,0.29,4.4,0.87c1.16,0.58,2.05,1.31,2.66,2.18
			c0.61,0.87,0.94,1.82,1.01,2.83c0.07,1.02-0.12,1.96-0.55,2.83c-0.44,0.87-1.11,1.6-2.02,2.18c-0.91,0.58-2.03,0.87-3.35,0.87
			c-1.11,0-2.05-0.07-2.81-0.2c-0.77-0.13-1.4-0.26-1.9-0.4c0.26,0.79,0.61,1.53,1.03,2.22c0.42,0.69,0.94,1.29,1.54,1.82
			c0.61,0.53,1.31,0.95,2.1,1.25c0.79,0.3,1.7,0.46,2.73,0.46c0.74,0,1.37-0.07,1.9-0.22c0.53-0.14,0.98-0.31,1.35-0.5
			c0.42-0.21,0.77-0.45,1.03-0.71l0.16,0.28C102.45,87.58,101.55,88.44,100.57,89.18z M106.16,73.84l-2.22,0.28
			c0.87-2.34,1.9-6.46,2.34-9.31l3.61-0.36C108.97,67.78,107.27,72.02,106.16,73.84z M126.11,90.25c-1.57,1.06-3.72,1.58-6.44,1.58
			c-1.19,0-2.28-0.1-3.27-0.3c-0.99-0.2-1.83-0.42-2.52-0.65c-0.85-0.29-1.59-0.61-2.22-0.95v-6.42h0.12
			c0.53,1.48,1.16,2.79,1.9,3.92c0.32,0.48,0.67,0.95,1.07,1.43s0.85,0.89,1.35,1.25c0.5,0.36,1.04,0.65,1.62,0.87
			c0.58,0.22,1.21,0.34,1.9,0.34c0.21,0,0.44-0.03,0.67-0.1c0.24-0.07,0.46-0.18,0.67-0.34c0.21-0.16,0.39-0.36,0.54-0.61
			c0.14-0.25,0.22-0.56,0.22-0.93c0-0.85-0.24-1.59-0.73-2.24c-0.49-0.65-1.1-1.25-1.84-1.82c-0.74-0.57-1.55-1.12-2.42-1.66
			c-0.87-0.54-1.68-1.15-2.42-1.82c-0.74-0.67-1.35-1.44-1.84-2.3c-0.49-0.86-0.73-1.88-0.73-3.07c0-1.85,0.7-3.24,2.1-4.18
			c1.4-0.94,3.22-1.41,5.47-1.41c1.29,0,2.43,0.07,3.41,0.2c0.98,0.13,1.81,0.26,2.5,0.4c0.79,0.16,1.48,0.34,2.06,0.56l-0.12,5.98
			h-0.12c-0.32-1.21-0.78-2.31-1.39-3.29c-0.26-0.42-0.56-0.83-0.89-1.23c-0.33-0.4-0.71-0.75-1.15-1.07
			c-0.44-0.32-0.92-0.57-1.45-0.75c-0.53-0.18-1.11-0.28-1.74-0.28c-0.45,0-0.89,0.14-1.33,0.42c-0.44,0.28-0.65,0.81-0.65,1.6
			c0,0.87,0.24,1.61,0.73,2.22c0.49,0.61,1.11,1.16,1.86,1.66c0.75,0.5,1.56,0.99,2.42,1.47c0.86,0.48,1.66,1.02,2.42,1.62
			c0.75,0.61,1.37,1.31,1.86,2.12c0.49,0.81,0.73,1.8,0.73,2.99C128.46,87.59,127.68,89.19,126.11,90.25z"/>
		<path class="st4" d="M64.53,47.43c0.18,0.01,0.36,0.04,0.55,0.05c1.03,0.02,1.95,0.37,2.84,0.86c0.65,0.36,1.32,0.7,2.02,0.92
			c2.13,0.66,4.25,0.51,6.32-0.32c2.39-0.96,4.36-2.41,5.65-4.69c0.64-1.13,1.03-2.35,1.1-3.65c0.07-1.28,0.34-2.48,1.08-3.55
			c0.28-0.4,0.33-0.87,0.2-1.38c-0.1,0.02-0.19,0.04-0.27,0.05c-2.32,0.53-4.49,0.16-6.49-1.13c-0.93-0.6-1.66-1.39-2.29-2.29
			c-0.09-0.12-0.27-0.25-0.41-0.24c-0.69,0.03-1.39,0.04-2.06,0.17c-2.57,0.51-4.71,1.77-6.38,3.82c-1.31,1.6-2.09,3.39-2.17,5.48
			c-0.04,1.1-0.38,2.1-1.01,3.02C62.36,45.8,63.31,47.37,64.53,47.43z M70.37,41.49c0,0.44-0.36,0.8-0.8,0.8
			c-0.44,0-0.8-0.36-0.8-0.8c0-0.44,0.36-0.8,0.8-0.8C70.01,40.69,70.37,41.04,70.37,41.49z M68.2,37.83c0.44,0,0.8,0.36,0.8,0.8
			s-0.36,0.8-0.8,0.8c-0.44,0-0.8-0.36-0.8-0.8S67.76,37.83,68.2,37.83z M66.77,42.12c0.44,0,0.8,0.36,0.8,0.8s-0.36,0.8-0.8,0.8
			c-0.44,0-0.8-0.36-0.8-0.8S66.33,42.12,66.77,42.12z"/>
		<path class="st3" d="M23.03,64.85c0.24,0.16,0.46,0.4,0.65,0.71c0.2,0.32,0.3,0.74,0.3,1.27v20.72c0,1.95-0.07,3.62-0.22,4.99
			c-0.15,1.37-0.33,2.5-0.55,3.37c-0.22,0.87-0.48,1.51-0.77,1.92c-0.29,0.41-0.58,0.61-0.87,0.61V99c0.18,0,0.55-0.1,1.11-0.3
			c0.55-0.2,1.19-0.52,1.92-0.97c0.73-0.45,1.49-1.04,2.28-1.78c0.79-0.74,1.52-1.66,2.18-2.75c0.66-1.1,1.21-2.38,1.64-3.84
			c0.44-1.47,0.65-3.16,0.65-5.09V66.79c0-0.53,0.1-0.94,0.3-1.25c0.2-0.3,0.42-0.53,0.65-0.69c0.29-0.18,0.59-0.3,0.91-0.36H22.12
			C22.43,64.54,22.74,64.66,23.03,64.85z"/>
		<path class="st3" d="M57.54,90.01c-0.32-0.05-0.62-0.17-0.91-0.36c-0.24-0.16-0.46-0.38-0.65-0.67c-0.2-0.29-0.3-0.7-0.3-1.23
			V70.83c-0.16,0.16-0.41,0.31-0.75,0.46c-0.34,0.14-0.74,0.28-1.19,0.42c-0.45,0.13-0.94,0.26-1.47,0.4
			c-0.53,0.13-1.06,0.25-1.58,0.36c-1.27,0.26-2.63,0.5-4.08,0.71c0.32,0.05,0.62,0.17,0.91,0.36c0.21,0.16,0.42,0.39,0.61,0.69
			c0.2,0.3,0.3,0.72,0.3,1.25v7.33c-0.03,0.87-0.08,1.7-0.16,2.48c-0.08,0.78-0.21,1.47-0.4,2.06c-0.18,0.59-0.44,1.06-0.75,1.41
			c-0.32,0.34-0.73,0.52-1.23,0.52c-1.03,0-1.72-0.55-2.06-1.66c-0.34-1.11-0.51-2.65-0.51-4.64l0.04-12.12
			c-0.16,0.16-0.41,0.31-0.75,0.46c-0.34,0.14-0.75,0.28-1.21,0.42c-0.46,0.13-0.96,0.26-1.49,0.4c-0.53,0.13-1.06,0.25-1.58,0.36
			c-1.27,0.26-2.63,0.5-4.08,0.71c0.32,0.05,0.62,0.17,0.91,0.36c0.21,0.16,0.42,0.39,0.61,0.69c0.2,0.3,0.3,0.72,0.3,1.25v6.42
			h0.04c0,3.06,0.53,5.47,1.58,7.23c1.06,1.76,2.77,2.63,5.15,2.63c1.56,0,2.79-0.34,3.69-1.03c0.9-0.69,1.53-1.89,1.9-3.61v4.64
			L57.54,90.01z"/>
		<path class="st3" d="M68.32,90.56c-0.18-0.29-0.28-0.7-0.28-1.23V62.59c-0.16,0.16-0.41,0.32-0.75,0.48s-0.74,0.3-1.2,0.44
			c-0.46,0.13-0.95,0.26-1.48,0.4c-0.53,0.13-1.05,0.25-1.58,0.36c-1.26,0.26-2.62,0.5-4.07,0.71c0.32,0.05,0.62,0.17,0.91,0.36
			c0.21,0.16,0.42,0.39,0.61,0.69c0.2,0.3,0.3,0.72,0.3,1.25V89.3c0,0.53-0.1,0.95-0.3,1.25c-0.2,0.3-0.4,0.53-0.61,0.69
			c-0.29,0.19-0.59,0.3-0.91,0.36h10.9c-0.34-0.05-0.65-0.17-0.91-0.36C68.71,91.08,68.5,90.85,68.32,90.56z"/>
		<path class="st3" d="M72.85,90.54c-0.2,0.3-0.4,0.53-0.61,0.69c-0.29,0.19-0.59,0.3-0.91,0.36h10.94
			c-0.34-0.05-0.65-0.17-0.91-0.36c-0.24-0.16-0.45-0.38-0.63-0.67c-0.19-0.29-0.28-0.7-0.28-1.23v-18.5
			c-0.16,0.16-0.41,0.31-0.75,0.46c-0.34,0.14-0.75,0.28-1.21,0.42c-0.46,0.13-0.96,0.26-1.49,0.4c-0.53,0.13-1.06,0.25-1.59,0.36
			c-1.27,0.26-2.63,0.5-4.08,0.71c0.32,0.05,0.62,0.17,0.91,0.36c0.21,0.16,0.42,0.39,0.61,0.69c0.2,0.3,0.3,0.72,0.3,1.25V89.3
			C73.15,89.82,73.05,90.24,72.85,90.54z"/>
		<path class="st3" d="M78.14,70.51c0.5-0.21,0.94-0.5,1.33-0.87c0.38-0.37,0.68-0.81,0.89-1.31c0.21-0.5,0.32-1.04,0.32-1.62
			c0-0.55-0.11-1.08-0.32-1.58c-0.21-0.5-0.51-0.94-0.89-1.33c-0.38-0.38-0.83-0.68-1.33-0.89c-0.5-0.21-1.03-0.32-1.58-0.32
			c-0.58,0-1.12,0.11-1.62,0.32c-0.5,0.21-0.94,0.51-1.31,0.89c-0.37,0.38-0.66,0.83-0.87,1.33c-0.21,0.5-0.32,1.03-0.32,1.58
			c0,1.16,0.4,2.14,1.19,2.93c0.79,0.79,1.77,1.19,2.93,1.19C77.11,70.83,77.64,70.73,78.14,70.51z"/>
		<path class="st3" d="M102.08,87.04c-0.37,0.19-0.82,0.35-1.35,0.5c-0.53,0.14-1.16,0.22-1.9,0.22c-1.03,0-1.94-0.15-2.73-0.46
			c-0.79-0.3-1.49-0.72-2.1-1.25c-0.61-0.53-1.12-1.14-1.54-1.82c-0.42-0.69-0.77-1.43-1.03-2.22c0.5,0.13,1.14,0.26,1.9,0.4
			c0.77,0.13,1.7,0.2,2.81,0.2c1.32,0,2.44-0.29,3.35-0.87c0.91-0.58,1.59-1.31,2.02-2.18c0.44-0.87,0.62-1.82,0.55-2.83
			c-0.07-1.02-0.4-1.96-1.01-2.83c-0.61-0.87-1.49-1.6-2.66-2.18c-1.16-0.58-2.63-0.87-4.4-0.87c-1.64,0-3.08,0.27-4.32,0.81
			c-1.24,0.54-2.28,1.29-3.11,2.24c-0.83,0.95-1.45,2.06-1.86,3.33c-0.41,1.27-0.61,2.63-0.61,4.08c0,1.45,0.2,2.81,0.61,4.08
			c0.41,1.27,1.03,2.38,1.86,3.33c0.83,0.95,1.87,1.7,3.11,2.24c1.24,0.54,2.68,0.81,4.32,0.81c1.29,0,2.5-0.26,3.63-0.79
			c1.12-0.53,2.11-1.12,2.95-1.78c0.98-0.74,1.88-1.6,2.69-2.58l-0.16-0.28C102.84,86.59,102.5,86.83,102.08,87.04z M90.8,77.94
			c-0.01-1.23,0.11-2.34,0.38-3.33c0.26-0.99,0.63-1.8,1.11-2.44c0.48-0.63,1.04-0.95,1.7-0.95c0.42,0,0.79,0.14,1.11,0.42
			c0.32,0.28,0.59,0.63,0.81,1.05c0.22,0.42,0.39,0.9,0.5,1.45c0.1,0.54,0.16,1.06,0.16,1.57c0,1.19-0.15,2.19-0.44,3.01
			c-0.29,0.82-0.68,1.47-1.17,1.94c-0.49,0.48-1.05,0.79-1.68,0.93c-0.63,0.15-1.29,0.13-1.98-0.06
			C90.98,80.37,90.82,79.17,90.8,77.94z"/>
		<path class="st3" d="M103.94,74.12l2.22-0.28c1.11-1.82,2.81-6.06,3.73-9.39l-3.61,0.36C105.84,67.66,104.81,71.78,103.94,74.12z"
			/>
		<path class="st3" d="M127.73,82.46c-0.49-0.81-1.11-1.51-1.86-2.12c-0.75-0.61-1.56-1.15-2.42-1.62
			c-0.86-0.48-1.66-0.96-2.42-1.47c-0.75-0.5-1.37-1.06-1.86-1.66c-0.49-0.61-0.73-1.35-0.73-2.22c0-0.79,0.22-1.33,0.65-1.6
			c0.44-0.28,0.88-0.42,1.33-0.42c0.63,0,1.21,0.09,1.74,0.28c0.53,0.18,1.01,0.44,1.45,0.75c0.44,0.32,0.82,0.67,1.15,1.07
			c0.33,0.4,0.63,0.81,0.89,1.23c0.61,0.98,1.07,2.07,1.39,3.29h0.12l0.12-5.98c-0.58-0.21-1.27-0.4-2.06-0.56
			c-0.69-0.13-1.52-0.26-2.5-0.4c-0.98-0.13-2.11-0.2-3.41-0.2c-2.25,0-4.07,0.47-5.47,1.41c-1.4,0.94-2.1,2.33-2.1,4.18
			c0,1.19,0.24,2.21,0.73,3.07c0.49,0.86,1.1,1.62,1.84,2.3c0.74,0.67,1.55,1.28,2.42,1.82c0.87,0.54,1.68,1.1,2.42,1.66
			c0.74,0.57,1.35,1.18,1.84,1.82c0.49,0.65,0.73,1.39,0.73,2.24c0,0.37-0.07,0.68-0.22,0.93c-0.15,0.25-0.32,0.46-0.54,0.61
			c-0.21,0.16-0.44,0.27-0.67,0.34c-0.24,0.07-0.46,0.1-0.67,0.1c-0.69,0-1.32-0.11-1.9-0.34c-0.58-0.22-1.12-0.52-1.62-0.87
			c-0.5-0.36-0.95-0.77-1.35-1.25s-0.75-0.95-1.07-1.43c-0.74-1.14-1.37-2.44-1.9-3.92h-0.12v6.42c0.63,0.34,1.37,0.66,2.22,0.95
			c0.69,0.24,1.52,0.46,2.52,0.65c0.99,0.2,2.08,0.3,3.27,0.3c2.72,0,4.87-0.53,6.44-1.58c1.57-1.06,2.36-2.66,2.36-4.79
			C128.46,84.26,128.22,83.27,127.73,82.46z"/>
		<path class="st3" d="M55.11,107.48c-1.05,0-2,0.44-2.64,1.24h-0.02v-5.06h-1.27v11.57h1.21v-1.21h0.03
			c0.61,0.82,1.56,1.31,2.67,1.31c2.11,0,3.76-1.53,3.76-3.87C58.86,109.19,57.27,107.48,55.11,107.48z M54.97,114.16
			c-1.37,0-2.56-1.08-2.56-2.7c0-1.57,1.08-2.8,2.55-2.8s2.59,1.1,2.59,2.8C57.55,113,56.53,114.16,54.97,114.16z"/>
		<path class="st3" d="M66.8,108.72h-0.02c-0.64-0.8-1.59-1.24-2.64-1.24c-2.17,0-3.74,1.71-3.74,3.98c0,2.34,1.63,3.87,3.76,3.87
			c1.12,0,2.06-0.49,2.67-1.31h0.02v1.21h1.23v-7.66H66.8V108.72z M64.27,114.16c-1.56,0-2.58-1.16-2.58-2.7
			c0-1.7,1.15-2.8,2.59-2.8c1.48,0,2.56,1.23,2.56,2.8C66.84,113.08,65.65,114.16,64.27,114.16z"/>
		<polygon class="st3" points="77.05,107.58 75.49,107.58 71.73,111.76 71.7,111.76 71.7,103.66 70.45,103.66 70.45,115.23 
			71.7,115.23 71.7,113.5 73.31,111.73 73.34,111.73 75.6,115.23 77.06,115.23 74.19,110.75 		"/>
		<path class="st3" d="M81.83,107.48c-2.07,0-3.66,1.62-3.66,3.93c0,2.33,1.63,3.91,3.8,3.91c1.4,0,2.44-0.58,3.1-1.43l-0.9-0.77
			c-0.47,0.6-1.19,1.04-2.15,1.04c-1.38,0-2.39-0.93-2.56-2.36h5.9c0-0.05,0.03-0.31,0.03-0.52
			C85.38,109.08,83.97,107.48,81.83,107.48z M79.5,110.75c0.24-1.31,1.19-2.09,2.39-2.09c1.23,0,2.03,0.83,2.23,2.09H79.5z"/>
		<path class="st3" d="M88.62,108.93h-0.02v-1.35h-1.27v7.66h1.27v-3.69c0-1.54,0.88-2.66,2.33-2.66c0.13,0,0.33,0.02,0.5,0.03
			v-1.41c-0.08-0.02-0.19-0.02-0.31-0.02C90.08,107.48,89.19,108.02,88.62,108.93z"/>
		<polygon class="st3" points="95.99,113.41 95.96,113.41 93.48,107.58 92.11,107.58 95.35,114.92 93.98,118.34 95.33,118.34 
			99.66,107.58 98.31,107.58 		"/>
		<path class="st3" d="M61.53,47.24c0.64,1.17,1.62,1.89,2.97,1.93c0.99,0.03,1.89,0.27,2.73,0.77c1.86,1.12,3.89,1.55,6.04,1.41
			c2.82-0.18,5.3-1.27,7.48-3.05c1.3-1.07,2.32-2.37,3.05-3.88c0.63-1.29,0.94-2.68,1-4.12c0.04-0.84,0.31-1.58,0.78-2.29
			c0.5-0.75,0.67-1.62,0.52-2.51c-0.05-0.29,0.02-0.38,0.26-0.5c0.72-0.37,1.43-0.75,2.13-1.16c0.45-0.27,0.52-0.74,0.22-1.17
			c-0.27-0.39-0.71-0.49-1.18-0.25c-0.49,0.25-0.98,0.52-1.5,0.8c-0.41-0.76-0.79-1.52-1.21-2.26c-0.42-0.73-0.82-1.48-1.32-2.14
			c-2.3-2.97-6.51-3.84-9.84-2.06c-0.86,0.46-0.91,0.6-0.54,1.64c0.04,0.1,0.1,0.19,0.15,0.29c0.27,0.51,0.55,1.02,0.85,1.6
			c-0.33,0.03-0.6,0.05-0.88,0.08c-2.48,0.29-4.67,1.26-6.55,2.89c-0.6,0.53-1.11,1.17-1.68,1.73c-0.43,0.43-0.79,0.9-1.08,1.44
			c-0.83,1.56-1.37,3.19-1.44,4.98c-0.02,0.47-0.14,0.96-0.3,1.41c-0.12,0.36-0.36,0.68-0.57,1c-0.5,0.8-0.51,1.68-0.42,2.57
			C61.21,46.7,61.38,46.98,61.53,47.24z M78.46,27.71c1.95,0.43,3.42,1.5,4.33,3.3c0.42,0.83,0.87,1.66,1.32,2.48
			c0.14,0.26,0.08,0.35-0.21,0.43c-2.14,0.61-4.09,0.24-5.84-1.12c-0.62-0.48-1.12-1.06-1.5-1.75c-0.5-0.91-0.98-1.84-1.47-2.76
			c-0.03-0.06-0.05-0.13-0.09-0.23C76.14,27.61,77.28,27.45,78.46,27.71z M63.22,44.54c0.63-0.92,0.97-1.92,1.01-3.02
			c0.08-2.08,0.86-3.88,2.17-5.48c1.67-2.04,3.81-3.3,6.38-3.82c0.67-0.13,1.37-0.14,2.06-0.17c0.13-0.01,0.32,0.12,0.41,0.24
			c0.64,0.89,1.37,1.69,2.29,2.29c2,1.29,4.17,1.66,6.49,1.13c0.08-0.02,0.16-0.03,0.27-0.05c0.13,0.51,0.08,0.98-0.2,1.38
			c-0.74,1.08-1.02,2.27-1.08,3.55c-0.07,1.3-0.45,2.51-1.1,3.65c-1.29,2.28-3.27,3.73-5.65,4.69c-2.07,0.83-4.19,0.98-6.32,0.32
			c-0.7-0.22-1.38-0.56-2.02-0.92c-0.89-0.49-1.81-0.84-2.84-0.86c-0.18,0-0.36-0.04-0.55-0.05C63.31,47.37,62.36,45.8,63.22,44.54z
			"/>
		<path class="st3" d="M68.2,39.44c0.44,0,0.8-0.36,0.8-0.8s-0.36-0.8-0.8-0.8c-0.44,0-0.8,0.36-0.8,0.8S67.76,39.44,68.2,39.44z"/>
		<path class="st3" d="M66.77,43.72c0.44,0,0.8-0.36,0.8-0.8s-0.36-0.8-0.8-0.8c-0.44,0-0.8,0.36-0.8,0.8S66.33,43.72,66.77,43.72z"
			/>
		<path class="st3" d="M68.77,41.49c0,0.44,0.36,0.8,0.8,0.8c0.44,0,0.8-0.36,0.8-0.8c0-0.44-0.36-0.8-0.8-0.8
			C69.12,40.69,68.77,41.04,68.77,41.49z"/>
	</g>
</g>
<g id="Lager_2">
</g>
</svg>
